REM DIRINDEX 1\2,1\3,1\4,1\5
REM DIRNAME folder01,folder02,folder03,folder04,folder05
TITLE ""
FILE "1800_141.mp3" MP3
  TRACK 01 AUDIO
    TITLE "2:cjc044_4277"
    INDEX 01 00:00:00
  TRACK 02 AUDIO
    TITLE "0:"
    INDEX 01 00:00:68
  TRACK 03 AUDIO
    TITLE "3:cjc044_4278"
    INDEX 01 00:01:50
  TRACK 04 AUDIO
    TITLE "0:"
    INDEX 01 00:03:31
  TRACK 05 AUDIO
    TITLE "4:cjc044_4279"
    INDEX 01 00:04:17
  TRACK 06 AUDIO
    TITLE "0:"
    INDEX 01 00:05:18
  TRACK 07 AUDIO
    TITLE "5:cjc044_4280"
    INDEX 01 00:06:00
  TRACK 08 AUDIO
    TITLE "0:"
    INDEX 01 00:08:48
  TRACK 09 AUDIO
    TITLE "2:cjc044_4281"
    INDEX 01 00:10:31
  TRACK 10 AUDIO
    TITLE "0:"
    INDEX 01 00:11:37
  TRACK 11 AUDIO
    TITLE "3:cjc044_4282"
    INDEX 01 00:12:18
  TRACK 12 AUDIO
    TITLE "0:"
    INDEX 01 00:13:39
  TRACK 13 AUDIO
    TITLE "4:cjc044_4283"
    INDEX 01 00:14:21
  TRACK 14 AUDIO
    TITLE "0:"
    INDEX 01 00:15:28
  TRACK 15 AUDIO
    TITLE "5:cjc044_4284"
    INDEX 01 00:16:08
  TRACK 16 AUDIO
    TITLE "0:"
    INDEX 01 00:19:11
  TRACK 17 AUDIO
    TITLE "2:cjc044_4285"
    INDEX 01 00:20:73
  TRACK 18 AUDIO
    TITLE "0:"
    INDEX 01 00:22:03
  TRACK 19 AUDIO
    TITLE "3:cjc044_4286"
    INDEX 01 00:22:62
  TRACK 20 AUDIO
    TITLE "0:"
    INDEX 01 00:24:69
  TRACK 21 AUDIO
    TITLE "4:cjc044_4287"
    INDEX 01 00:25:54
  TRACK 22 AUDIO
    TITLE "0:"
    INDEX 01 00:26:58
  TRACK 23 AUDIO
    TITLE "5:cjc044_4288"
    INDEX 01 00:27:45
  TRACK 24 AUDIO
    TITLE "0:"
    INDEX 01 00:31:14
  TRACK 25 AUDIO
    TITLE "2:cjc044_4289"
    INDEX 01 00:32:74
  TRACK 26 AUDIO
    TITLE "0:"
    INDEX 01 00:33:73
  TRACK 27 AUDIO
    TITLE "3:cjc044_4290"
    INDEX 01 00:34:53
  TRACK 28 AUDIO
    TITLE "0:"
    INDEX 01 00:35:64
  TRACK 29 AUDIO
    TITLE "4:cjc044_4291"
    INDEX 01 00:36:46
  TRACK 30 AUDIO
    TITLE "0:"
    INDEX 01 00:37:44
  TRACK 31 AUDIO
    TITLE "5:cjc044_4292"
    INDEX 01 00:38:30
  TRACK 32 AUDIO
    TITLE "0:"
    INDEX 01 00:42:00
  TRACK 33 AUDIO
    TITLE "2:cjc044_4293"
    INDEX 01 00:43:58
  TRACK 34 AUDIO
    TITLE "0:"
    INDEX 01 00:44:71
  TRACK 35 AUDIO
    TITLE "3:cjc044_4294"
    INDEX 01 00:45:51
  TRACK 36 AUDIO
    TITLE "0:"
    INDEX 01 00:47:15
  TRACK 37 AUDIO
    TITLE "4:cjc044_4295"
    INDEX 01 00:47:72
  TRACK 38 AUDIO
    TITLE "0:"
    INDEX 01 00:49:08
  TRACK 39 AUDIO
    TITLE "5:cjc044_4296"
    INDEX 01 00:49:65
  TRACK 40 AUDIO
    TITLE "0:"
    INDEX 01 00:53:47
  TRACK 41 AUDIO
    TITLE "2:cjc044_4297"
    INDEX 01 00:55:32
  TRACK 42 AUDIO
    TITLE "0:"
    INDEX 01 00:56:43
  TRACK 43 AUDIO
    TITLE "3:cjc044_4298"
    INDEX 01 00:57:27
  TRACK 44 AUDIO
    TITLE "0:"
    INDEX 01 00:58:42
  TRACK 45 AUDIO
    TITLE "4:cjc044_4299"
    INDEX 01 00:59:26
  TRACK 46 AUDIO
    TITLE "0:"
    INDEX 01 01:00:37
  TRACK 47 AUDIO
    TITLE "5:cjc044_4300"
    INDEX 01 01:01:23
  TRACK 48 AUDIO
    TITLE "0:"
    INDEX 01 01:04:72
  TRACK 49 AUDIO
    TITLE "2:cjc044_4301"
    INDEX 01 01:06:59
  TRACK 50 AUDIO
    TITLE "0:"
    INDEX 01 01:07:51
  TRACK 51 AUDIO
    TITLE "3:cjc044_4302"
    INDEX 01 01:08:44
  TRACK 52 AUDIO
    TITLE "0:"
    INDEX 01 01:09:52
  TRACK 53 AUDIO
    TITLE "4:cjc044_4303"
    INDEX 01 01:10:35
  TRACK 54 AUDIO
    TITLE "0:"
    INDEX 01 01:11:31
  TRACK 55 AUDIO
    TITLE "5:cjc044_4304"
    INDEX 01 01:12:21
  TRACK 56 AUDIO
    TITLE "0:"
    INDEX 01 01:15:23
  TRACK 57 AUDIO
    TITLE "2:cjc044_4305"
    INDEX 01 01:17:12
  TRACK 58 AUDIO
    TITLE "0:"
    INDEX 01 01:18:15
  TRACK 59 AUDIO
    TITLE "3:cjc044_4306"
    INDEX 01 01:18:74
  TRACK 60 AUDIO
    TITLE "0:"
    INDEX 01 01:20:06
  TRACK 61 AUDIO
    TITLE "4:cjc044_4307"
    INDEX 01 01:20:65
  TRACK 62 AUDIO
    TITLE "0:"
    INDEX 01 01:21:70
  TRACK 63 AUDIO
    TITLE "5:cjc044_4308"
    INDEX 01 01:22:46
  TRACK 64 AUDIO
    TITLE "0:"
    INDEX 01 01:25:17
  TRACK 65 AUDIO
    TITLE "2:cjc044_4309"
    INDEX 01 01:27:06
  TRACK 66 AUDIO
    TITLE "0:"
    INDEX 01 01:28:10
  TRACK 67 AUDIO
    TITLE "3:cjc044_4310"
    INDEX 01 01:28:72
  TRACK 68 AUDIO
    TITLE "0:"
    INDEX 01 01:30:32
  TRACK 69 AUDIO
    TITLE "4:cjc044_4311"
    INDEX 01 01:31:18
  TRACK 70 AUDIO
    TITLE "0:"
    INDEX 01 01:32:21
  TRACK 71 AUDIO
    TITLE "5:cjc044_4312"
    INDEX 01 01:33:07
  TRACK 72 AUDIO
    TITLE "0:"
    INDEX 01 01:35:57
  TRACK 73 AUDIO
    TITLE "2:cjc044_4313"
    INDEX 01 01:37:42
  TRACK 74 AUDIO
    TITLE "0:"
    INDEX 01 01:38:55
  TRACK 75 AUDIO
    TITLE "3:cjc044_4314"
    INDEX 01 01:39:33
  TRACK 76 AUDIO
    TITLE "0:"
    INDEX 01 01:41:10
  TRACK 77 AUDIO
    TITLE "4:cjc044_4315"
    INDEX 01 01:41:67
  TRACK 78 AUDIO
    TITLE "0:"
    INDEX 01 01:43:05
  TRACK 79 AUDIO
    TITLE "5:cjc044_4316"
    INDEX 01 01:43:62
  TRACK 80 AUDIO
    TITLE "0:"
    INDEX 01 01:47:21
